<svg width="20" height="20" viewBox="0 0 20 20" fill="none" xmlns="http://www.w3.org/2000/svg">
    <g clip-path="url(#clip0_43_195)">
        <path d="M9.99987 3.435L9.10362 2.51375C6.99987 0.35125 3.14237 1.0975 1.74987 3.81625C1.09612 5.095 0.948619 6.94125 2.14237 9.2975C3.29237 11.5663 5.68487 14.2837 9.99987 17.2437C14.3149 14.2837 16.7061 11.5663 17.8574 9.2975C19.0511 6.94 18.9049 5.095 18.2499 3.81625C16.8574 1.0975 12.9999 0.35 10.8961 2.5125L9.99987 3.435ZM9.99987 18.75C-9.16638 6.085 4.09862 -3.8 9.77987 1.42875C9.85487 1.4975 9.92862 1.56875 9.99987 1.6425C10.0704 1.56882 10.1438 1.49793 10.2199 1.43C15.8999 -3.8025 29.1661 6.08375 9.99987 18.75Z" fill="#C90303" />
    </g>
    <defs>
        <clipPath id="clip0_43_195">
            <rect width="20" height="20" fill="white" />
        </clipPath>
    </defs>
</svg>