<svg width="28" height="28" viewBox="0 0 28 28" fill="none" xmlns="http://www.w3.org/2000/svg">
<path d="M22.5204 7.8319L22.8739 7.47834L22.5204 7.12479L20.8754 5.47979L20.5218 5.12624L20.1683 5.47979L14.0002 11.6479L7.83205 5.47979L7.4785 5.12624L7.12494 5.47979L5.47994 7.12479L5.12639 7.47834L5.47994 7.8319L11.6481 14L5.47994 20.1681L5.12639 20.5217L5.47994 20.8752L7.12494 22.5202L7.4785 22.8738L7.83205 22.5202L14.0002 16.3521L20.1683 22.5202L20.5218 22.8738L20.8754 22.5202L22.5204 20.8752L22.8739 20.5217L22.5204 20.1681L16.3523 14L22.5204 7.8319Z" fill="white" stroke="white"/>
</svg>
