<svg width="20" height="20" viewBox="0 0 20 20" fill="none" xmlns="http://www.w3.org/2000/svg">
<g clip-path="url(#clip0_43_198)">
<path d="M10.0178 -0.487487C12.6064 -0.482839 14.9567 0.537239 16.692 2.19552L18.0871 0.800403C18.6777 0.209817 19.6875 0.628099 19.6875 1.46333V6.70001C19.6875 7.21779 19.2678 7.63751 18.75 7.63751H13.5133C12.6781 7.63751 12.2598 6.62771 12.8504 6.03708L14.4813 4.40622C13.2756 3.27736 11.7156 2.65204 10.0582 2.63775C6.44891 2.60658 3.40652 5.52747 3.43773 9.25657C3.46734 12.7941 6.33531 15.7625 10 15.7625C11.6065 15.7625 13.1249 15.1892 14.3214 14.1392C14.5067 13.9767 14.7865 13.9866 14.9608 14.1608L16.5101 15.7101C16.7004 15.9004 16.691 16.2107 16.4913 16.3911C14.7735 17.9427 12.4971 18.8875 10 18.8875C4.64977 18.8875 0.312539 14.5503 0.3125 9.20009C0.312461 3.85599 4.67367 -0.497058 10.0178 -0.487487Z" fill="#1CB0F6"/>
</g>
<defs>
<clipPath id="clip0_43_198">
<rect width="20" height="20" fill="white"/>
</clipPath>
</defs>
</svg>
